<svg width="32" height="34" viewBox="0 0 32 34" fill="none" xmlns="http://www.w3.org/2000/svg">
<path d="M30.4866 2.92197C30.1329 2.72391 29.6921 2.73556 29.35 2.9511L26.7171 4.59966V1.58215C26.7171 1.11612 26.4272 0.6967 25.9922 0.527766C25.5573 0.358832 25.0643 0.481163 24.7512 0.830682L17.5543 8.94534C17.1426 9.41137 17.1832 10.1221 17.6471 10.5357C18.3256 11.1415 18.7142 12.0095 18.7142 12.9124C18.7142 14.6716 17.2876 16.1047 15.5362 16.1047C13.7848 16.1047 12.3582 14.6716 12.3582 12.9124C12.3582 12.0095 12.7467 11.1415 13.4253 10.5357C13.8892 10.1221 13.9298 9.40554 13.518 8.94534L6.31538 0.830682C6.00802 0.481163 5.51508 0.358832 5.07434 0.527766C4.6394 0.6967 4.34944 1.11612 4.34944 1.58215V4.59966L1.71658 2.9511C1.36862 2.73556 0.933679 2.72391 0.579925 2.92197C0.226171 3.12003 0 3.49868 0 3.90645L0 23.8756C0 24.2659 0.202974 24.6271 0.527731 24.831L14.9331 33.8369C14.9331 33.8369 14.9505 33.8427 14.9621 33.8486C14.9853 33.8602 15.0027 33.8719 15.0258 33.8835C15.0548 33.8952 15.078 33.9126 15.107 33.9243C15.1128 33.9243 15.1186 33.9301 15.1244 33.9359C15.136 33.9359 15.1476 33.9359 15.1592 33.9418C15.1592 33.9418 15.1708 33.9418 15.1766 33.9418C15.1998 33.9476 15.2172 33.9592 15.2404 33.9651C15.252 33.9651 15.2636 33.9651 15.2752 33.9709C15.3564 33.9884 15.4434 34 15.5246 34C15.6116 34 15.6928 33.9884 15.774 33.9709C15.7856 33.9709 15.7971 33.9709 15.8087 33.9651C15.8319 33.9651 15.8493 33.9476 15.8725 33.9418C15.8725 33.9418 15.8841 33.9418 15.8899 33.9418C15.9015 33.9418 15.9131 33.9418 15.9247 33.9359C15.9305 33.9359 15.9363 33.9301 15.9421 33.9243C15.9711 33.9126 15.9943 33.901 16.0233 33.8835C16.0465 33.8719 16.0697 33.8602 16.0871 33.8486C16.0987 33.8486 16.1045 33.8427 16.1161 33.8369L30.5214 24.831C30.852 24.6271 31.0492 24.2659 31.0492 23.8756V3.90645C31.0492 3.49868 30.8288 3.12003 30.4692 2.92197H30.4866ZM20.9527 12.9124C20.9527 11.7473 20.5757 10.6172 19.8972 9.69098L24.467 4.54141V21.1202L16.6554 29.9223L16.6554 18.2425C19.1085 17.7241 20.9527 15.5279 20.9527 12.9124ZM6.59954 4.54141L11.1693 9.69098C10.4908 10.6172 10.1139 11.7473 10.1139 12.9124C10.1139 15.5279 11.958 17.7241 14.4111 18.2425V29.9223L6.59954 21.1202L6.59954 4.54141ZM2.24431 5.93948L4.34944 7.256L4.34944 21.5513C4.34944 21.8309 4.44802 22.0931 4.6336 22.3028L9.49917 27.7902L2.23851 23.2523L2.23851 5.93948H2.24431ZM28.8165 23.2523L21.5558 27.7902L26.4214 22.3028C26.6069 22.0989 26.7055 21.8309 26.7055 21.5513V7.256L28.8107 5.93948V23.2523H28.8165Z" fill="#745FE8"/>
</svg>
